<svg width="132" height="132" viewBox="0 0 132 132" fill="none" xmlns="http://www.w3.org/2000/svg"><rect x="56.0688" y="19.127" width="75.3726" height="75.3726" rx="4.5" fill="white" stroke="#E0E0E0"></rect><rect x="65.7517" y="28.8096" width="15.1128" height="19.5174" fill="#E0E0E0"></rect><rect x="73.3081" y="81.8467" width="7.55641" height="2.97004" rx="1.48502" fill="#1D57C7"></rect><rect x="65.7517" y="51.7217" width="15.1128" height="2.54575" fill="#E0E0E0"></rect><rect x="65.7517" y="55.9648" width="15.1128" height="2.54575" fill="#E0E0E0"></rect><rect x="65.7517" y="60.2075" width="15.1128" height="0.848584" fill="#E0E0E0"></rect><rect x="65.7517" y="61.9048" width="15.1128" height="0.848584" fill="#E0E0E0"></rect><rect x="65.7517" y="63.6021" width="12.8903" height="0.848584" fill="#E0E0E0"></rect><rect x="65.7517" y="65.2993" width="11.1124" height="0.848584" fill="#E0E0E0"></rect><rect x="65.7517" y="66.9961" width="14.2238" height="0.848584" fill="#E0E0E0"></rect><rect x="65.7517" y="68.6934" width="15.1128" height="0.848584" fill="#E0E0E0"></rect><rect x="65.7517" y="70.3906" width="15.1128" height="0.848584" fill="#E0E0E0"></rect><rect x="65.7517" y="72.0879" width="8.8899" height="0.848584" fill="#E0E0E0"></rect><rect x="65.7517" y="73.7847" width="9.77888" height="0.848584" fill="#E0E0E0"></rect><rect x="65.7517" y="75.4819" width="15.1128" height="0.848584" fill="#E0E0E0"></rect><rect x="65.7517" y="77.1792" width="12.8903" height="0.848584" fill="#E0E0E0"></rect><rect x="65.7517" y="78.8765" width="15.1128" height="0.848584" fill="#E0E0E0"></rect><rect x="86.1987" y="28.8096" width="15.1128" height="19.5174" fill="#E0E0E0"></rect><rect x="93.7546" y="81.8467" width="7.55641" height="2.97004" rx="1.48502" fill="#1D57C7"></rect><rect x="86.1982" y="51.7217" width="15.1128" height="2.54575" fill="#E0E0E0"></rect><rect x="86.1982" y="55.9648" width="15.1128" height="2.54575" fill="#E0E0E0"></rect><rect x="86.1982" y="60.2075" width="15.1128" height="0.848584" fill="#E0E0E0"></rect><rect x="86.1982" y="61.9048" width="15.1128" height="0.848584" fill="#E0E0E0"></rect><rect x="86.1982" y="63.6021" width="12.8903" height="0.848584" fill="#E0E0E0"></rect><rect x="86.1982" y="65.2993" width="11.1124" height="0.848584" fill="#E0E0E0"></rect><rect x="86.1982" y="66.9961" width="14.2238" height="0.848584" fill="#E0E0E0"></rect><rect x="86.1982" y="68.6934" width="15.1128" height="0.848584" fill="#E0E0E0"></rect><rect x="86.1982" y="70.3906" width="15.1128" height="0.848584" fill="#E0E0E0"></rect><rect x="86.1982" y="72.0879" width="8.8899" height="0.848584" fill="#E0E0E0"></rect><rect x="86.1982" y="73.7847" width="9.77888" height="0.848584" fill="#E0E0E0"></rect><rect x="86.1982" y="75.4819" width="15.1128" height="0.848584" fill="#E0E0E0"></rect><rect x="86.1982" y="77.1792" width="12.8903" height="0.848584" fill="#E0E0E0"></rect><rect x="86.1982" y="78.8765" width="15.1128" height="0.848584" fill="#E0E0E0"></rect><rect x="106.646" y="28.8096" width="15.1128" height="19.5174" fill="#EDEDED"></rect><rect x="114.202" y="81.8467" width="7.55641" height="2.97004" rx="1.48502" fill="#1D57C7"></rect><rect x="106.645" y="51.7217" width="15.1128" height="2.54575" fill="#E0E0E0"></rect><rect x="106.645" y="55.9648" width="15.1128" height="2.54575" fill="#E0E0E0"></rect><rect x="106.645" y="60.2075" width="15.1128" height="0.848584" fill="#E0E0E0"></rect><rect x="106.645" y="61.9048" width="15.1128" height="0.848584" fill="#E0E0E0"></rect><rect x="106.645" y="63.6021" width="12.8903" height="0.848584" fill="#E0E0E0"></rect><rect x="106.645" y="65.2993" width="11.1124" height="0.848584" fill="#E0E0E0"></rect><rect x="106.645" y="66.9961" width="14.2238" height="0.848584" fill="#E0E0E0"></rect><rect x="106.645" y="68.6934" width="15.1128" height="0.848584" fill="#E0E0E0"></rect><rect x="106.645" y="70.3906" width="15.1128" height="0.848584" fill="#E0E0E0"></rect><rect x="106.645" y="72.0879" width="8.8899" height="0.848584" fill="#E0E0E0"></rect><rect x="106.645" y="73.7847" width="9.77888" height="0.848584" fill="#E0E0E0"></rect><rect x="106.645" y="75.4819" width="15.1128" height="0.848584" fill="#E0E0E0"></rect><rect x="106.645" y="77.1792" width="12.8903" height="0.848584" fill="#E0E0E0"></rect><rect x="106.645" y="78.8765" width="15.1128" height="0.848584" fill="#E0E0E0"></rect><rect x="27.7842" y="9.81445" width="75.3726" height="75.3726" rx="4.5" fill="white" stroke="#E0E0E0"></rect><rect x="37.9675" y="23.3921" width="5.78867" height="5.36438" fill="white" stroke="#E0E0E0"></rect><rect x="46.4536" y="23.3921" width="5.36438" height="5.36438" fill="white" stroke="#E0E0E0"></rect><rect x="54.5149" y="23.3921" width="5.78867" height="5.36438" fill="white" stroke="#E0E0E0"></rect><rect x="63.001" y="23.3921" width="5.36438" height="5.36438" fill="white" stroke="#E0E0E0"></rect><rect x="71.0627" y="23.3921" width="5.36438" height="5.36438" fill="white" stroke="#E0E0E0"></rect><rect x="79.124" y="23.3921" width="5.36438" height="5.36438" fill="white" stroke="#E0E0E0"></rect><rect x="86.6853" y="22.8921" width="6.78867" height="6.36438" fill="#E0E0E0"></rect><rect x="40.0134" y="19.4976" width="1.69717" height="1.69717" fill="#E0E0E0"></rect><rect x="48.0752" y="19.4976" width="1.69717" height="1.69717" fill="#E0E0E0"></rect><rect x="56.5605" y="19.4976" width="1.69717" height="1.69717" fill="#E0E0E0"></rect><rect x="64.6223" y="19.4976" width="1.69717" height="1.69717" fill="#E0E0E0"></rect><rect x="72.6836" y="19.4976" width="1.69717" height="1.69717" fill="#E0E0E0"></rect><rect x="80.7454" y="19.4976" width="1.69717" height="1.69717" fill="#E0E0E0"></rect><rect x="89.231" y="19.4976" width="1.69717" height="1.69717" fill="#E0E0E0"></rect><rect x="37.4675" y="30.9536" width="6.78867" height="6.36438" fill="#E0E0E0"></rect><rect x="45.9536" y="30.9536" width="6.36438" height="6.36438" fill="#E0E0E0"></rect><rect x="54.0149" y="30.9536" width="6.78867" height="6.36438" fill="#E0E0E0"></rect><rect x="62.501" y="30.9536" width="6.36438" height="6.36438" fill="#E0E0E0"></rect><rect x="70.5627" y="30.9536" width="6.36438" height="6.36438" fill="#E0E0E0"></rect><rect x="78.624" y="30.9536" width="6.36438" height="6.36438" fill="#E0E0E0"></rect><rect x="86.6853" y="30.9536" width="6.78867" height="6.36438" fill="#E0E0E0"></rect><rect x="37.4675" y="39.0156" width="6.78867" height="6.36438" fill="#E0E0E0"></rect><rect x="45.9536" y="39.0156" width="6.36438" height="6.36438" fill="#E0E0E0"></rect><rect x="54.0149" y="39.0156" width="6.78867" height="6.36438" fill="#E0E0E0"></rect><rect x="62.501" y="39.0156" width="6.36438" height="6.36438" fill="#E0E0E0"></rect><rect x="70.5627" y="39.0156" width="6.36438" height="6.36438" fill="#E0E0E0"></rect><rect x="78.624" y="39.0156" width="6.36438" height="6.36438" fill="#E0E0E0"></rect><rect x="86.6853" y="39.0156" width="6.78867" height="6.36438" fill="#E0E0E0"></rect><rect x="37.4675" y="47.0767" width="6.78867" height="6.36438" fill="#E0E0E0"></rect><rect x="45.9536" y="47.0767" width="6.36438" height="6.36438" fill="#E0E0E0"></rect><rect x="54.0149" y="47.0767" width="6.78867" height="6.36438" fill="#E0E0E0"></rect><rect x="62.501" y="47.0767" width="6.36438" height="6.36438" fill="#E0E0E0"></rect><rect x="70.5627" y="47.0767" width="6.36438" height="6.36438" fill="#E0E0E0"></rect><rect x="78.624" y="47.0767" width="6.36438" height="6.36438" fill="#E0E0E0"></rect><rect x="86.6853" y="47.0767" width="6.78867" height="6.36438" fill="#E0E0E0"></rect><rect x="37.4675" y="55.1382" width="6.78867" height="6.36438" fill="#E0E0E0"></rect><rect x="45.9536" y="55.1382" width="6.36438" height="6.36438" fill="#E0E0E0"></rect><rect x="54.0149" y="55.1382" width="6.78867" height="6.36438" fill="#E0E0E0"></rect><rect x="62.501" y="55.1382" width="6.36438" height="6.36438" fill="#E0E0E0"></rect><rect x="70.5627" y="55.1382" width="6.36438" height="6.36438" fill="#E0E0E0"></rect><rect x="78.624" y="55.1382" width="6.36438" height="6.36438" fill="#E0E0E0"></rect><rect x="86.6853" y="55.1382" width="6.78867" height="6.36438" fill="#E0E0E0"></rect><rect x="37.4675" y="63.1997" width="6.78867" height="6.36438" fill="#E0E0E0"></rect><rect x="45.9536" y="63.1997" width="6.36438" height="6.36438" fill="#E0E0E0"></rect><rect x="54.5149" y="63.6997" width="5.78867" height="5.36438" fill="white" stroke="#E0E0E0"></rect><rect x="63.001" y="63.6997" width="5.36438" height="5.36438" fill="white" stroke="#E0E0E0"></rect><rect x="71.0627" y="63.6997" width="5.36438" height="5.36438" fill="white" stroke="#E0E0E0"></rect><rect x="79.124" y="63.6997" width="5.36438" height="5.36438" fill="white" stroke="#E0E0E0"></rect><rect x="87.1853" y="63.6997" width="5.78867" height="5.36438" fill="white" stroke="#E0E0E0"></rect><rect x="85.917" y="72.5342" width="7.55641" height="2.97004" rx="1.48502" fill="#1D57C7"></rect><rect x="38" y="110" width="56" height="22" rx="11" fill="#1D57C7"></rect><rect x="0.5" y="0.5" width="75.3726" height="75.3726" rx="4.5" fill="white" stroke="#E0E0E0"></rect><rect x="50.0501" y="34.574" width="1.06972" height="0.94387" fill="white" stroke="#E0E0E0" stroke-width="0.94387"></rect><rect x="52.5671" y="34.574" width="0.94387" height="0.94387" fill="white" stroke="#E0E0E0" stroke-width="0.94387"></rect><rect x="54.958" y="34.574" width="1.06972" height="0.94387" fill="white" stroke="#E0E0E0" stroke-width="0.94387"></rect><rect x="57.4751" y="34.574" width="0.94387" height="0.94387" fill="white" stroke="#E0E0E0" stroke-width="0.94387"></rect><rect x="59.8662" y="34.574" width="0.94387" height="0.94387" fill="white" stroke="#E0E0E0" stroke-width="0.94387"></rect><rect x="62.2576" y="34.574" width="0.94387" height="0.94387" fill="white" stroke="#E0E0E0" stroke-width="0.94387"></rect><rect x="64.1768" y="34.1021" width="2.01359" height="1.88774" fill="#E0E0E0"></rect><rect x="50.3335" y="33.0952" width="0.503397" height="0.503397" fill="#E0E0E0"></rect><rect x="52.7246" y="33.0952" width="0.503397" height="0.503397" fill="#E0E0E0"></rect><rect x="55.2415" y="33.0952" width="0.503397" height="0.503397" fill="#E0E0E0"></rect><rect x="57.6326" y="33.0952" width="0.503397" height="0.503397" fill="#E0E0E0"></rect><rect x="60.0237" y="33.0952" width="0.503397" height="0.503397" fill="#E0E0E0"></rect><rect x="62.4146" y="33.0952" width="0.503397" height="0.503397" fill="#E0E0E0"></rect><rect x="64.9316" y="33.0952" width="0.503397" height="0.503397" fill="#E0E0E0"></rect><rect x="49.5781" y="36.4932" width="2.01359" height="1.88774" fill="#E0E0E0"></rect><rect x="52.0952" y="36.4932" width="1.88774" height="1.88774" fill="#E0E0E0"></rect><rect x="54.4861" y="36.4932" width="2.01359" height="1.88774" fill="#E0E0E0"></rect><rect x="57.0032" y="36.4932" width="1.88774" height="1.88774" fill="#E0E0E0"></rect><rect x="59.3943" y="36.4932" width="1.88774" height="1.88774" fill="#E0E0E0"></rect><rect x="61.7856" y="36.4932" width="1.88774" height="1.88774" fill="#E0E0E0"></rect><rect x="64.1768" y="36.4932" width="2.01359" height="1.88774" fill="#E0E0E0"></rect><rect x="49.5781" y="38.8843" width="2.01359" height="1.88774" fill="#E0E0E0"></rect><rect x="52.0952" y="38.8843" width="1.88774" height="1.88774" fill="#E0E0E0"></rect><rect x="54.4861" y="38.8843" width="2.01359" height="1.88774" fill="#E0E0E0"></rect><rect x="57.0032" y="38.8843" width="1.88774" height="1.88774" fill="#E0E0E0"></rect><rect x="59.3943" y="38.8843" width="1.88774" height="1.88774" fill="#E0E0E0"></rect><rect x="61.7856" y="38.8843" width="1.88774" height="1.88774" fill="#E0E0E0"></rect><rect x="64.1768" y="38.8843" width="2.01359" height="1.88774" fill="#E0E0E0"></rect><rect x="49.5781" y="41.2759" width="2.01359" height="1.88774" fill="#E0E0E0"></rect><rect x="52.0952" y="41.2759" width="1.88774" height="1.88774" fill="#E0E0E0"></rect><rect x="54.4861" y="41.2759" width="2.01359" height="1.88774" fill="#E0E0E0"></rect><rect x="57.0032" y="41.2759" width="1.88774" height="1.88774" fill="#E0E0E0"></rect><rect x="59.3943" y="41.2759" width="1.88774" height="1.88774" fill="#E0E0E0"></rect><rect x="61.7856" y="41.2759" width="1.88774" height="1.88774" fill="#E0E0E0"></rect><rect x="64.1768" y="41.2759" width="2.01359" height="1.88774" fill="#E0E0E0"></rect><rect x="49.5781" y="43.667" width="2.01359" height="1.88774" fill="#E0E0E0"></rect><rect x="52.0952" y="43.667" width="1.88774" height="1.88774" fill="#E0E0E0"></rect><rect x="54.4861" y="43.667" width="2.01359" height="1.88774" fill="#E0E0E0"></rect><rect x="57.0032" y="43.667" width="1.88774" height="1.88774" fill="#E0E0E0"></rect><rect x="59.3943" y="43.667" width="1.88774" height="1.88774" fill="#E0E0E0"></rect><rect x="61.7856" y="43.667" width="1.88774" height="1.88774" fill="#E0E0E0"></rect><rect x="64.1768" y="43.667" width="2.01359" height="1.88774" fill="#E0E0E0"></rect><rect x="49.5781" y="46.0576" width="2.01359" height="1.88774" fill="#E0E0E0"></rect><rect x="52.0952" y="46.0576" width="1.88774" height="1.88774" fill="#E0E0E0"></rect><rect x="54.958" y="46.5296" width="1.06972" height="0.94387" fill="white" stroke="#E0E0E0" stroke-width="0.94387"></rect><rect x="57.4751" y="46.5296" width="0.94387" height="0.94387" fill="white" stroke="#E0E0E0" stroke-width="0.94387"></rect><rect x="59.8662" y="46.5296" width="0.94387" height="0.94387" fill="white" stroke="#E0E0E0" stroke-width="0.94387"></rect><rect x="62.2576" y="46.5296" width="0.94387" height="0.94387" fill="white" stroke="#E0E0E0" stroke-width="0.94387"></rect><rect x="64.6487" y="46.5296" width="1.06972" height="0.94387" fill="white" stroke="#E0E0E0" stroke-width="0.94387"></rect><rect x="10.1836" y="10.1826" width="56.0065" height="19.5174" fill="#EDEDED"></rect><rect x="58.5525" y="63.2197" width="7.55641" height="2.97004" rx="1.48502" fill="#1D57C7"></rect><rect x="10.1833" y="33.0947" width="33.9434" height="2.54575" fill="#E0E0E0"></rect><rect x="10.1833" y="37.3379" width="31.3976" height="2.54575" fill="#E0E0E0"></rect><rect x="10.1833" y="41.5806" width="33.9434" height="0.848584" fill="#E0E0E0"></rect><rect x="10.1833" y="43.2778" width="33.9434" height="0.848584" fill="#E0E0E0"></rect><rect x="10.1833" y="44.9751" width="31.3976" height="0.848584" fill="#E0E0E0"></rect><rect x="10.1833" y="46.6724" width="27.1547" height="0.848584" fill="#E0E0E0"></rect><rect x="10.1833" y="48.3691" width="34.7919" height="0.848584" fill="#E0E0E0"></rect><rect x="10.1833" y="50.0664" width="32.2462" height="0.848584" fill="#E0E0E0"></rect><rect x="10.1833" y="51.7637" width="33.9434" height="0.848584" fill="#E0E0E0"></rect><rect x="10.1833" y="53.4609" width="21.6389" height="0.848584" fill="#E0E0E0"></rect><rect x="10.1833" y="55.1577" width="23.7603" height="0.848584" fill="#E0E0E0"></rect><rect x="10.1833" y="56.855" width="33.9434" height="0.848584" fill="#E0E0E0"></rect><rect x="10.1833" y="58.5522" width="31.3976" height="0.848584" fill="#E0E0E0"></rect><rect x="10.1833" y="60.2495" width="33.9434" height="0.848584" fill="#E0E0E0"></rect></svg>