<svg width="132" height="132" viewBox="0 0 132 132" fill="none" xmlns="http://www.w3.org/2000/svg"><rect y="8" width="16" height="15" fill="#EDEDED"></rect><rect x="20" y="8" width="15" height="15" fill="#EDEDED"></rect><rect x="39" y="8" width="16" height="15" fill="#EDEDED"></rect><rect x="59" y="8" width="15" height="15" fill="#EDEDED"></rect><rect x="78" y="8" width="15" height="15" fill="#EDEDED"></rect><rect x="97" y="8" width="15" height="15" fill="#EDEDED"></rect><rect x="116" y="8" width="16" height="15" fill="#E0E0E0"></rect><rect x="6" width="4" height="4" fill="#E0E0E0"></rect><rect x="25" width="4" height="4" fill="#E0E0E0"></rect><rect x="45" width="4" height="4" fill="#E0E0E0"></rect><rect x="64" width="4" height="4" fill="#E0E0E0"></rect><rect x="83" width="4" height="4" fill="#E0E0E0"></rect><rect x="102" width="4" height="4" fill="#E0E0E0"></rect><rect x="122" width="4" height="4" fill="#E0E0E0"></rect><rect y="27" width="16" height="15" fill="#E0E0E0"></rect><rect x="20" y="27" width="15" height="15" fill="#E0E0E0"></rect><rect x="39" y="27" width="16" height="15" fill="#E0E0E0"></rect><rect x="59" y="27" width="15" height="15" fill="#E0E0E0"></rect><rect x="78" y="27" width="15" height="15" fill="#E0E0E0"></rect><rect x="97" y="27" width="15" height="15" fill="#E0E0E0"></rect><rect x="116" y="27" width="16" height="15" fill="#E0E0E0"></rect><rect y="46" width="16" height="15" fill="#E0E0E0"></rect><rect x="20" y="46" width="15" height="15" fill="#E0E0E0"></rect><rect x="39" y="46" width="16" height="15" fill="#E0E0E0"></rect><rect x="59" y="46" width="15" height="15" fill="#E0E0E0"></rect><rect x="78" y="46" width="15" height="15" fill="#E0E0E0"></rect><rect x="97" y="46" width="15" height="15" fill="#E0E0E0"></rect><rect x="116" y="46" width="16" height="15" fill="#E0E0E0"></rect><rect y="65" width="16" height="15" fill="#E0E0E0"></rect><rect x="20" y="65" width="15" height="15" fill="#E0E0E0"></rect><rect x="39" y="65" width="16" height="15" fill="#E0E0E0"></rect><rect x="59" y="65" width="15" height="15" fill="#E0E0E0"></rect><rect x="78" y="65" width="15" height="15" fill="#E0E0E0"></rect><rect x="97" y="65" width="15" height="15" fill="#E0E0E0"></rect><rect x="116" y="65" width="16" height="15" fill="#E0E0E0"></rect><rect y="84" width="16" height="15" fill="#E0E0E0"></rect><rect x="20" y="84" width="15" height="15" fill="#E0E0E0"></rect><rect x="39" y="84" width="16" height="15" fill="#E0E0E0"></rect><rect x="59" y="84" width="15" height="15" fill="#E0E0E0"></rect><rect x="78" y="84" width="15" height="15" fill="#E0E0E0"></rect><rect x="97" y="84" width="15" height="15" fill="#E0E0E0"></rect><rect x="116" y="84" width="16" height="15" fill="#E0E0E0"></rect><rect y="103" width="16" height="15" fill="#E0E0E0"></rect><rect x="20" y="103" width="15" height="15" fill="#E0E0E0"></rect><rect x="39.5" y="103.5" width="15" height="14" fill="white" stroke="#E0E0E0"></rect><rect x="59.5" y="103.5" width="14" height="14" fill="white" stroke="#E0E0E0"></rect><rect x="78.5" y="103.5" width="14" height="14" fill="white" stroke="#E0E0E0"></rect><rect x="97.5" y="103.5" width="14" height="14" fill="white" stroke="#E0E0E0"></rect><rect x="116.5" y="103.5" width="15" height="14" fill="white" stroke="#E0E0E0"></rect><rect x="114.19" y="125" width="17.8095" height="7" rx="3.5" fill="#1D57C7"></rect></svg>