<svg width="132" height="132" viewBox="0 0 132 132" fill="none" xmlns="http://www.w3.org/2000/svg"><rect width="35.6189" height="46" fill="#EDEDED"></rect><rect x="17.8093" y="125" width="17.8095" height="7" rx="3.5" fill="#1D57C7"></rect><rect y="54" width="35.6189" height="6" fill="#E0E0E0"></rect><rect y="64" width="35.6189" height="6" fill="#E0E0E0"></rect><rect y="74" width="35.6189" height="2" fill="#E0E0E0"></rect><rect y="78" width="35.6189" height="2" fill="#E0E0E0"></rect><rect y="82" width="30.3808" height="2" fill="#E0E0E0"></rect><rect y="86" width="26.1904" height="2" fill="#E0E0E0"></rect><rect y="90" width="33.5237" height="2" fill="#E0E0E0"></rect><rect y="94" width="35.6189" height="2" fill="#E0E0E0"></rect><rect y="98" width="35.6189" height="2" fill="#E0E0E0"></rect><rect y="102" width="20.9523" height="2" fill="#E0E0E0"></rect><rect y="106" width="23.0475" height="2" fill="#E0E0E0"></rect><rect y="110" width="35.6189" height="2" fill="#E0E0E0"></rect><rect y="114" width="30.3808" height="2" fill="#E0E0E0"></rect><rect y="118" width="35.6189" height="2" fill="#E0E0E0"></rect><rect x="48.1899" width="35.6189" height="46" fill="#EDEDED"></rect><rect x="65.9993" y="125" width="17.8095" height="7" rx="3.5" fill="#1D57C7"></rect><rect x="48.1899" y="54" width="35.6189" height="6" fill="#E0E0E0"></rect><rect x="48.1899" y="64" width="35.6189" height="6" fill="#E0E0E0"></rect><rect x="48.1899" y="74" width="35.6189" height="2" fill="#E0E0E0"></rect><rect x="48.1899" y="78" width="35.6189" height="2" fill="#E0E0E0"></rect><rect x="48.1899" y="82" width="30.3808" height="2" fill="#E0E0E0"></rect><rect x="48.1899" y="86" width="26.1904" height="2" fill="#E0E0E0"></rect><rect x="48.1899" y="90" width="33.5237" height="2" fill="#E0E0E0"></rect><rect x="48.1899" y="94" width="35.6189" height="2" fill="#E0E0E0"></rect><rect x="48.1899" y="98" width="35.6189" height="2" fill="#E0E0E0"></rect><rect x="48.1899" y="102" width="20.9523" height="2" fill="#E0E0E0"></rect><rect x="48.1899" y="106" width="23.0475" height="2" fill="#E0E0E0"></rect><rect x="48.1899" y="110" width="35.6189" height="2" fill="#E0E0E0"></rect><rect x="48.1899" y="114" width="30.3808" height="2" fill="#E0E0E0"></rect><rect x="48.1899" y="118" width="35.6189" height="2" fill="#E0E0E0"></rect><rect x="96.3811" width="35.6189" height="46" fill="#EDEDED"></rect><rect x="114.19" y="125" width="17.8095" height="7" rx="3.5" fill="#1D57C7"></rect><rect x="96.3811" y="54" width="35.6189" height="6" fill="#E0E0E0"></rect><rect x="96.3811" y="64" width="35.6189" height="6" fill="#E0E0E0"></rect><rect x="96.3811" y="74" width="35.6189" height="2" fill="#E0E0E0"></rect><rect x="96.3811" y="78" width="35.6189" height="2" fill="#E0E0E0"></rect><rect x="96.3811" y="82" width="30.3808" height="2" fill="#E0E0E0"></rect><rect x="96.3811" y="86" width="26.1904" height="2" fill="#E0E0E0"></rect><rect x="96.3811" y="90" width="33.5237" height="2" fill="#E0E0E0"></rect><rect x="96.3811" y="94" width="35.6189" height="2" fill="#E0E0E0"></rect><rect x="96.3811" y="98" width="35.6189" height="2" fill="#E0E0E0"></rect><rect x="96.3811" y="102" width="20.9523" height="2" fill="#E0E0E0"></rect><rect x="96.3811" y="106" width="23.0475" height="2" fill="#E0E0E0"></rect><rect x="96.3811" y="110" width="35.6189" height="2" fill="#E0E0E0"></rect><rect x="96.3811" y="114" width="30.3808" height="2" fill="#E0E0E0"></rect><rect x="96.3811" y="118" width="35.6189" height="2" fill="#E0E0E0"></rect></svg>